<?xml version="1.0" encoding="UTF-8"?>
<svg width="212px" height="337px" viewBox="0 0 212 337" version="1.1" xmlns="http://www.w3.org/2000/svg" xmlns:xlink="http://www.w3.org/1999/xlink">
    <!-- Generator: Sketch 52.3 (67297) - http://www.bohemiancoding.com/sketch -->
    <title>Group 2</title>
    <desc>Created with Sketch.</desc>
    <g id="exploration" stroke="none" stroke-width="1" fill="none" fill-rule="evenodd">
        <g id="Up-Next-Cards" transform="translate(-645.000000, -587.000000)">
            <g id="Group-5" transform="translate(107.000000, 587.000000)">
                <g id="Group-4">
                    <g id="Group-2" transform="translate(742.000000, 197.000000) scale(1, -1) rotate(-270.000000) translate(-742.000000, -197.000000) translate(496.000000, -24.000000)">
                        <path d="M74.334175,320.619282 C70.0821755,285.24783 112.876347,294.611458 134.505501,270.029296 C152.564906,249.504257 146.389538,192.289914 175.317352,188.662019 C238.891055,180.689113 296.752684,226.841758 304.554919,291.746837 C307.9757,320.203568 272.054552,333.840816 258.014421,356.241606 C240.031345,384.933299 239.272437,419.226804 203.571742,423.7041 C139.998039,431.677005 82.1364094,385.52436 74.334175,320.619282 Z" id="Oval" fill="#6B52F8" transform="translate(189.411315, 306.183059) rotate(-3.000000) translate(-189.411315, -306.183059) "></path>
                        <path d="M337.137372,405.70541 C401.534431,405.688399 389.496259,362.93312 389.513517,297.537911 C389.530776,232.142702 337.340636,179.1432 272.943577,179.160211 C208.546518,179.177222 145.60669,269.833115 177.900801,325.768157 C187.730014,342.792852 230.940858,340.414011 255.165576,354.235762 C288.450275,373.226812 306.2137,405.713579 337.137372,405.70541 Z" id="Oval" fill="#FEE7A8" transform="translate(279.777838, 292.432809) rotate(-15.000000) translate(-279.777838, -292.432809) "></path>
                        <path d="M440.727575,156.194024 C463.863216,276.104685 367.716126,264.410298 271.327268,325.129883 C218.056232,358.687654 163.340949,334.008005 114.433082,366.033572 C79.0155876,389.225451 38.6702561,261.2835 45.509181,224.896539 C58.2193192,157.271393 163.683301,164.994863 226.352068,125.517047 C322.740926,64.797462 417.591934,36.2833616 440.727575,156.194024 Z" id="Oval" fill="#1CACBB" transform="translate(244.477494, 220.970342) rotate(26.000000) translate(-244.477494, -220.970342) "></path>
                        <path d="M452.134991,380.469576 C389.5,384 409.615522,353.893492 365.676195,311 C321.736869,268.106508 250.584899,269.556013 293.016613,225.138502 C335.448328,180.720991 405.465891,179.485529 449.405218,222.379021 C493.344544,265.272513 514.769982,376.939153 452.134991,380.469576 Z" id="Oval" fill="#FF7254"></path>
                    </g>
                </g>
            </g>
        </g>
    </g>
</svg>
