<?xml version="1.0" encoding="UTF-8"?>
<svg width="209px" height="337px" viewBox="0 0 209 337" version="1.1" xmlns="http://www.w3.org/2000/svg" xmlns:xlink="http://www.w3.org/1999/xlink">
    <!-- Generator: Sketch 52.3 (67297) - http://www.bohemiancoding.com/sketch -->
    <title>Group 2</title>
    <desc>Created with Sketch.</desc>
    <g id="exploration" stroke="none" stroke-width="1" fill="none" fill-rule="evenodd">
        <g id="Up-Next-Cards" transform="translate(-646.000000, -2139.000000)">
            <g id="Group-4" transform="translate(105.000000, 2139.000000)">
                <g id="Group-2" transform="translate(695.500000, 237.000000) rotate(90.000000) translate(-695.500000, -237.000000) translate(321.500000, -24.500000)">
                    <g id="Group-3" transform="translate(0.000000, 0.000000)">
                        <path d="M305.327847,341.153894 C300.33826,312.665347 345.836524,320.773231 368.433271,301.308616 C387.300574,285.056507 379.974426,238.985006 410.594571,236.462145 C477.887453,230.917736 539.861254,268.800567 549.01693,321.075815 C553.031109,343.995172 515.132842,354.468275 500.552349,372.282694 C481.877158,395.100009 481.539459,422.654025 443.750207,425.767565 C410.18599,428.532994 401.449625,406.32727 376.425924,391.087887 C351.279618,375.773838 309.916872,367.355393 305.327847,341.153894 Z" id="Oval" fill="#C35B8A" transform="translate(427.130759, 330.963217) rotate(-136.000000) translate(-427.130759, -330.963217) "></path>
                        <path d="M169.890299,407.63528 C271.459192,413.926041 348.615577,353.634193 342.223909,272.969666 C335.83224,192.30514 248.312913,121.813952 146.744019,115.52319 C45.1751261,109.232429 133.826713,214.802293 140.218382,295.46682 C146.61005,376.131346 68.3214052,401.344518 169.890299,407.63528 Z" id="Oval" fill="#462C67" transform="translate(220.444234, 261.670388) rotate(-99.000000) translate(-220.444234, -261.670388) "></path>
                        <path d="M697.169905,168.661868 C710.620137,289.373312 604.832243,249.593373 479.316195,324.127772 C353.800147,398.662172 417.114701,446.889113 271.742112,425.398562 C219.839176,417.725707 191.992618,326.8397 204.876055,288.490605 C228.819915,217.218833 356.957336,212.096891 438.563616,163.637151 C564.079663,89.1027514 683.719673,47.950424 697.169905,168.661868 Z" id="Oval" fill="#FFB900" transform="translate(450.038294, 261.428164) rotate(26.000000) translate(-450.038294, -261.428164) "></path>
                        <path d="M310.312423,396.139977 C251.350886,448.048843 153.626759,265.421278 98.8231031,177.813866 C44.0194475,90.2064531 112.857796,50.7809044 188.411596,114.722896 C213.838645,136.242081 281.298091,197.035245 285.428737,276.008382 C288.440444,333.588698 349.430909,361.700639 310.312423,396.139977 Z" id="Oval" fill="#6B52F8" transform="translate(201.220128, 244.223042) rotate(121.000000) translate(-201.220128, -244.223042) "></path>
                    </g>
                </g>
            </g>
        </g>
    </g>
</svg>