<?xml version="1.0" encoding="UTF-8"?>
<svg width="222px" height="337px" viewBox="0 0 222 337" version="1.1" xmlns="http://www.w3.org/2000/svg" xmlns:xlink="http://www.w3.org/1999/xlink">
    <!-- Generator: Sketch 52.3 (67297) - http://www.bohemiancoding.com/sketch -->
    <title>Group 2</title>
    <desc>Created with Sketch.</desc>
    <g id="exploration" stroke="none" stroke-width="1" fill="none" fill-rule="evenodd">
        <g id="Up-Next-Cards" transform="translate(-635.000000, -2915.000000)">
            <g id="Group-4" transform="translate(107.000000, 2915.000000)">
                <g id="Group-2" transform="translate(709.500000, 168.000000) rotate(90.000000) translate(-709.500000, -168.000000) translate(404.500000, -35.500000)">
                    <g id="Group-3">
                        <path d="M110.097232,245.962356 C105.107645,217.473809 150.605909,225.581693 173.202656,206.117078 C192.069959,189.864969 184.743811,143.793468 215.363955,141.270607 C282.656838,135.726198 344.630639,173.609029 353.786315,225.884277 C357.800494,248.803634 319.902227,259.276737 305.321734,277.091157 C286.646543,299.908471 286.308844,327.462487 248.519592,330.576027 C214.955375,333.341456 206.21901,311.135732 181.195309,295.896349 C156.049003,280.5823 114.686257,272.163855 110.097232,245.962356 Z" id="Oval" fill="#C0BBC6" transform="translate(231.900144, 235.771679) rotate(25.000000) translate(-231.900144, -235.771679) "></path>
                        <path d="M300.529079,391.323425 C408.342683,397.999257 490.242837,334.016826 483.458193,248.414667 C476.99532,166.872309 379.042785,245.362154 307.529956,158.191747 C290.413975,137.328259 314.442452,87.4240979 275.959708,81.3305837 C168.932558,64.3834692 262.248213,186.686755 269.032857,272.288914 C275.817502,357.891074 192.715474,384.647594 300.529079,391.323425 Z" id="Oval" fill="#FF7254" transform="translate(354.365167, 235.771679) rotate(-99.000000) translate(-354.365167, -235.771679) "></path>
                        <path d="M423.808104,130.827033 C434.278882,224.770877 351.924796,193.812085 254.212677,251.818583 C156.500558,309.82508 205.789867,347.357762 92.6197662,330.632711 C52.2142087,324.661302 30.5361343,253.929144 40.5656721,224.083909 C59.2055622,168.616556 158.958376,164.630398 222.487484,126.91654 C320.199603,68.9100427 413.337326,36.8831883 423.808104,130.827033 Z" id="Oval" fill="#222244" transform="translate(231.420327, 203.022528) rotate(26.000000) translate(-231.420327, -203.022528) "></path>
                        <path d="M535.244373,314.047259 C487.868101,355.8027 409.345643,208.897266 365.310277,138.425949 C321.274911,67.9546313 376.587314,36.2407584 437.295659,87.6756342 C457.726585,104.985645 511.931025,153.887607 515.250046,217.413521 C517.669987,263.731072 566.676526,286.34429 535.244373,314.047259 Z" id="Oval" fill="#D1D132" transform="translate(447.587462, 191.845425) rotate(121.000000) translate(-447.587462, -191.845425) "></path>
                    </g>
                </g>
            </g>
        </g>
    </g>
</svg>