<?xml version="1.0" encoding="UTF-8"?>
<svg width="190px" height="337px" viewBox="0 0 190 337" version="1.1" xmlns="http://www.w3.org/2000/svg" xmlns:xlink="http://www.w3.org/1999/xlink">
    <!-- Generator: Sketch 52.3 (67297) - http://www.bohemiancoding.com/sketch -->
    <title>Group 2</title>
    <desc>Created with Sketch.</desc>
    <g id="exploration" stroke="none" stroke-width="1" fill="none" fill-rule="evenodd">
        <g id="Up-Next-Cards" transform="translate(-665.000000, -3303.000000)">
            <g id="Group-4" transform="translate(105.000000, 3303.000000)">
                <g id="Group-2" transform="translate(644.000000, 132.500000) rotate(90.000000) translate(-644.000000, -132.500000) translate(269.500000, -113.500000)">
                    <g id="Group-3">
                        <path d="M506.324785,334.535083 C607.893678,340.825844 685.050063,280.533996 678.658395,199.86947 C672.56986,123.030571 580.29087,196.99303 512.920162,114.850714 C496.795562,95.1906572 519.432276,48.1650267 483.178505,42.4229935 C382.350515,26.4534086 470.261199,141.702097 476.652868,222.366623 C483.044536,303.031149 404.755891,328.244321 506.324785,334.535083 Z" id="Oval" fill="#462C67" transform="translate(557.042614, 187.955744) rotate(50.000000) translate(-557.042614, -187.955744) "></path>
                        <path d="M475.984318,184.101426 C487.755623,289.529384 379.133958,219.641872 269.285462,284.739342 C159.436965,349.836812 230.887028,427.101837 103.660585,408.332242 C58.2364376,401.630861 33.8658284,322.252088 45.1410893,288.758438 C66.0961553,226.510509 178.238812,222.037065 249.65858,179.712897 C359.507077,114.615427 464.213012,78.673467 475.984318,184.101426 Z" id="Oval" fill="#FF7254" transform="translate(259.633722, 264.308670) rotate(26.000000) translate(-259.633722, -264.308670) "></path>
                        <path d="M615.244373,291.047259 C567.868101,332.8027 489.345643,185.897266 445.310277,115.425949 C401.274911,44.9546313 456.587314,13.2407584 517.295659,64.6756342 C537.726585,81.9856454 591.931025,130.887607 595.250046,194.413521 C597.669987,240.731072 646.676526,263.34429 615.244373,291.047259 Z" id="Oval" fill="#C35B8A" transform="translate(527.587462, 168.845425) rotate(121.000000) translate(-527.587462, -168.845425) "></path>
                    </g>
                    <path d="M148.934453,163.084959 C143.413981,131.748749 193.753194,140.667082 218.754203,119.25682 C239.62896,101.380181 231.52332,50.7034573 265.401404,47.9284158 C339.854151,41.8297984 408.421875,83.4993266 418.551702,140.999912 C422.992984,166.210245 381.062396,177.73022 364.93056,197.325336 C344.268355,222.423428 343.894726,252.731692 302.084752,256.156455 C264.949351,259.198312 255.283449,234.772945 227.597263,218.010261 C199.775426,201.165448 154.011744,191.905511 148.934453,163.084959 Z" id="Oval" fill="#FEE7A8" transform="translate(283.697019, 151.875640) rotate(25.000000) translate(-283.697019, -151.875640) "></path>
                </g>
            </g>
        </g>
    </g>
</svg>