<?xml version="1.0" encoding="UTF-8"?>
<!DOCTYPE svg PUBLIC "-//W3C//DTD SVG 1.1//EN" "http://www.w3.org/Graphics/SVG/1.1/DTD/svg11.dtd">
<svg xmlns="http://www.w3.org/2000/svg" version="1.1" width="500px" height="500px" style="shape-rendering:geometricPrecision; text-rendering:geometricPrecision; image-rendering:optimizeQuality; fill-rule:evenodd; clip-rule:evenodd" xmlns:xlink="http://www.w3.org/1999/xlink">
<g><path style="opacity:1" fill="#e3e1dc" d="M -0.5,-0.5 C 166.167,-0.5 332.833,-0.5 499.5,-0.5C 499.5,166.167 499.5,332.833 499.5,499.5C 332.833,499.5 166.167,499.5 -0.5,499.5C -0.5,332.833 -0.5,166.167 -0.5,-0.5 Z"/></g>
<g><path style="opacity:1" fill="#db4b2c" d="M 153.5,184.5 C 168.312,183.185 181.979,186.351 194.5,194C 200.655,199.474 203.655,206.308 203.5,214.5C 195.5,214.5 187.5,214.5 179.5,214.5C 178.347,208.516 174.681,205.016 168.5,204C 152.542,202.625 145.208,209.958 146.5,226C 144.727,239.36 150.394,246.527 163.5,247.5C 169.114,247.894 173.948,246.227 178,242.5C 179.009,240.975 179.509,239.308 179.5,237.5C 173.5,237.5 167.5,237.5 161.5,237.5C 161.5,232.167 161.5,226.833 161.5,221.5C 175.5,221.5 189.5,221.5 203.5,221.5C 203.5,236.167 203.5,250.833 203.5,265.5C 199.167,265.5 194.833,265.5 190.5,265.5C 190.174,262.689 189.341,260.022 188,257.5C 182.385,262.264 175.885,265.097 168.5,266C 155.508,268.361 143.508,266.028 132.5,259C 125.812,252.623 121.978,244.79 121,235.5C 116.304,208.164 127.137,191.164 153.5,184.5 Z"/></g>
<g><path style="opacity:1" fill="#db4b2c" d="M 277.5,238.5 C 262.167,238.5 246.833,238.5 231.5,238.5C 231.205,240.735 231.539,242.735 232.5,244.5C 234.108,249.82 237.775,252.486 243.5,252.5C 246.698,252.378 249.698,251.545 252.5,250C 254.016,248.103 254.683,245.936 254.5,243.5C 262.167,243.5 269.833,243.5 277.5,243.5C 275.553,257.276 267.553,264.776 253.5,266C 218.464,269.954 204.298,254.787 211,220.5C 220.441,205.543 233.941,200.043 251.5,204C 270.644,207.41 279.311,218.91 277.5,238.5 Z"/></g>
<g><path style="opacity:1" fill="#db4c2e" d="M 316.5,203.5 C 327.766,200.899 336.599,204.233 343,213.5C 343.667,215.5 344.333,217.5 345,219.5C 345.5,234.83 345.667,250.163 345.5,265.5C 337.833,265.5 330.167,265.5 322.5,265.5C 322.667,252.163 322.5,238.829 322,225.5C 318.726,220.262 314.226,219.096 308.5,222C 306.513,223.319 305.346,225.152 305,227.5C 304.5,240.162 304.333,252.829 304.5,265.5C 296.833,265.5 289.167,265.5 281.5,265.5C 281.5,245.167 281.5,224.833 281.5,204.5C 288.167,204.5 294.833,204.5 301.5,204.5C 301.248,207.32 301.748,209.986 303,212.5C 306.882,208.429 311.382,205.429 316.5,203.5 Z"/></g>
<g><path style="opacity:1" fill="#e4ddd7" d="M 253.5,224.5 C 253.5,225.5 253.5,226.5 253.5,227.5C 246.087,228.128 239.087,227.461 232.5,225.5C 235.86,217.833 241.527,215.667 249.5,219C 251.464,220.451 252.797,222.284 253.5,224.5 Z"/></g>
<g><path style="opacity:1" fill="#df9c8b" d="M 253.5,224.5 C 254.434,225.568 254.768,226.901 254.5,228.5C 246.833,228.5 239.167,228.5 231.5,228.5C 231.263,227.209 231.596,226.209 232.5,225.5C 239.087,227.461 246.087,228.128 253.5,227.5C 253.5,226.5 253.5,225.5 253.5,224.5 Z"/></g>
<g><path style="opacity:1" fill="#e09f8e" d="M 277.5,238.5 C 262.676,239.496 247.676,239.829 232.5,239.5C 232.5,241.167 232.5,242.833 232.5,244.5C 231.539,242.735 231.205,240.735 231.5,238.5C 246.833,238.5 262.167,238.5 277.5,238.5 Z"/></g>
<g><path style="opacity:1" fill="#0a1e2e" d="M 352.5,242.5 C 360.5,242.5 368.5,242.5 376.5,242.5C 376.5,250.167 376.5,257.833 376.5,265.5C 368.5,265.5 360.5,265.5 352.5,265.5C 352.5,257.833 352.5,250.167 352.5,242.5 Z"/></g>
<g><path style="opacity:1" fill="#0b1e2e" d="M 353.5,270.5 C 371.167,270.5 388.833,270.5 406.5,270.5C 406.663,272.857 406.497,275.19 406,277.5C 397.306,289.361 388.806,301.361 380.5,313.5C 389.475,314.498 398.475,314.832 407.5,314.5C 407.5,319.167 407.5,323.833 407.5,328.5C 388.833,328.5 370.167,328.5 351.5,328.5C 351.211,325.351 351.711,322.351 353,319.5C 361.387,307.954 369.553,296.287 377.5,284.5C 369.684,283.508 361.684,283.174 353.5,283.5C 353.5,279.167 353.5,274.833 353.5,270.5 Z"/></g>
<g><path style="opacity:1" fill="#5b676f" d="M 353.5,270.5 C 353.5,274.833 353.5,279.167 353.5,283.5C 361.684,283.174 369.684,283.508 377.5,284.5C 369.167,284.5 360.833,284.5 352.5,284.5C 352.181,279.637 352.514,274.97 353.5,270.5 Z"/></g>
</svg>
