<?xml version="1.0" encoding="UTF-8"?>
<svg version="1.1" xmlns="http://www.w3.org/2000/svg" width="500" height="500">
<path d="M0 0 C165 0 330 0 500 0 C500 165 500 330 500 500 C335 500 170 500 0 500 C0 335 0 170 0 0 Z " fill="#0A1E2E" transform="translate(0,0)"/>
<path d="M0 0 C4.57285489 3.69863263 8.36446636 7.65518302 9.875 13.46875 C9.875 16.10875 9.875 18.74875 9.875 21.46875 C1.955 21.46875 -5.965 21.46875 -14.125 21.46875 C-15.115 19.48875 -16.105 17.50875 -17.125 15.46875 C-22.04362325 11.57483993 -26.15917444 10.77049148 -32.40234375 11.01953125 C-36.69034436 11.72702059 -40.06713511 13.36761344 -43.125 16.46875 C-46.68018365 21.78099902 -46.61007637 26.73429786 -46.5625 32.90625 C-46.58248047 33.82212891 -46.60246094 34.73800781 -46.62304688 35.68164062 C-46.61866044 41.79194112 -45.9073432 45.59135236 -42.125 50.46875 C-35.97541664 54.64534203 -29.28831335 54.23261043 -22.125 53.46875 C-19.22581358 52.49887829 -18.32315444 51.72796428 -16.125 49.46875 C-15.465 47.81875 -14.805 46.16875 -14.125 44.46875 C-20.065 44.46875 -26.005 44.46875 -32.125 44.46875 C-32.125 39.18875 -32.125 33.90875 -32.125 28.46875 C-18.265 28.46875 -4.405 28.46875 9.875 28.46875 C9.875 42.98875 9.875 57.50875 9.875 72.46875 C5.585 72.46875 1.295 72.46875 -3.125 72.46875 C-4.115 70.15875 -5.105 67.84875 -6.125 65.46875 C-6.58648437 65.79488281 -7.04796875 66.12101562 -7.5234375 66.45703125 C-19.57437422 74.53068253 -33.2277132 75.06542206 -47.32421875 73 C-55.80520393 70.76325665 -62.92901123 65.8198404 -67.91015625 58.6171875 C-69.91384738 55.07368228 -71.14220077 51.40701743 -72.125 47.46875 C-72.30804688 46.76363281 -72.49109375 46.05851562 -72.6796875 45.33203125 C-74.80206568 31.68551193 -74.3084623 17.7746538 -66.375 6.15625 C-50.97479142 -12.67050499 -19.11414402 -13.77342731 0 0 Z " fill="#E1E0DB" transform="translate(194.125,193.53125)"/>
<path d="M0 0 C5.80484903 4.41298003 8.99106217 10.55946008 10.6015625 17.59765625 C10.6015625 21.55765625 10.6015625 25.51765625 10.6015625 29.59765625 C-4.5784375 29.59765625 -19.7584375 29.59765625 -35.3984375 29.59765625 C-33.9299523 37.08102522 -33.9299523 37.08102522 -29.3984375 41.59765625 C-25.44810484 43.57282258 -20.72312994 42.88563287 -16.5234375 41.97265625 C-13.64685127 40.42521439 -13.64685127 40.42521439 -12.3984375 34.59765625 C-4.8084375 34.59765625 2.7815625 34.59765625 10.6015625 34.59765625 C9.56288509 42.90707549 8.61409929 45.51164295 3.0390625 51.22265625 C-7.67697373 59.29888843 -21.56889837 58.98340866 -34.3984375 57.59765625 C-42.03561915 56.01231756 -48.61715813 52.03335429 -53.5234375 45.97265625 C-58.95969504 36.18739268 -60.29787289 24.75152358 -57.4609375 13.84765625 C-54.39421671 6.10852595 -47.86961496 -0.40987348 -40.3203125 -3.78125 C-27.74041925 -7.84670331 -11.39128869 -6.66037889 0 0 Z " fill="#E1DFDB" transform="translate(267.3984375,209.40234375)"/>
<path d="M0 0 C1.29550781 -0.02578125 2.59101563 -0.0515625 3.92578125 -0.078125 C8.71326169 0.33947454 11.91298894 1.6840319 15.515625 4.86328125 C15.98484375 5.42402344 16.4540625 5.98476562 16.9375 6.5625 C17.41703125 7.11550781 17.8965625 7.66851562 18.390625 8.23828125 C22.18732165 14.12773539 21.95423725 20.1505752 21.8828125 26.8984375 C21.8799826 27.91096588 21.87715271 28.92349426 21.87423706 29.96670532 C21.86308254 33.18625938 21.83798646 36.40553065 21.8125 39.625 C21.8024641 41.81379805 21.79333931 44.00260049 21.78515625 46.19140625 C21.76486413 51.54446625 21.72570598 56.89691824 21.6875 62.25 C14.0975 62.25 6.5075 62.25 -1.3125 62.25 C-1.36857422 57.98835938 -1.36857422 57.98835938 -1.42578125 53.640625 C-1.47200155 50.88696624 -1.52323336 48.13344315 -1.57495117 45.37988281 C-1.60819114 43.46720636 -1.63622599 41.55443203 -1.65893555 39.64160156 C-1.69249869 36.89085206 -1.74481489 34.14099868 -1.80078125 31.390625 C-1.80717117 30.53631897 -1.8135611 29.68201294 -1.82014465 28.80181885 C-1.90652611 25.30832514 -2.00475542 22.85789342 -3.59838867 19.70996094 C-6.01078456 17.65524972 -8.29188406 17.70420769 -11.375 17.8515625 C-14.2983374 18.45273269 -15.58187124 19.89634489 -17.3125 22.25 C-18.94907754 25.52315509 -18.5555807 29.15622231 -18.62890625 32.7578125 C-18.64968735 33.59843231 -18.67046844 34.43905212 -18.69187927 35.30514526 C-18.75735439 37.99501235 -18.8162502 40.68497843 -18.875 43.375 C-18.91818716 45.19662489 -18.96180152 47.01823971 -19.00585938 48.83984375 C-19.11383907 53.30979577 -19.21292729 57.77982108 -19.3125 62.25 C-26.9025 62.25 -34.4925 62.25 -42.3125 62.25 C-42.3125 42.12 -42.3125 21.99 -42.3125 1.25 C-35.7125 1.25 -29.1125 1.25 -22.3125 1.25 C-22.3125 4.22 -22.3125 7.19 -22.3125 10.25 C-21.6525 10.25 -20.9925 10.25 -20.3125 10.25 C-20.06371094 9.64542969 -19.81492187 9.04085937 -19.55859375 8.41796875 C-18.11452545 5.90556152 -16.85114187 5.02420758 -14.375 3.5625 C-13.68535156 3.14613281 -12.99570312 2.72976562 -12.28515625 2.30078125 C-8.15868946 0.1027227 -4.61403942 0.05476605 0 0 Z " fill="#E0DED9" transform="translate(324.3125,203.75)"/>
<path d="M0 0 C17.82 0 35.64 0 54 0 C54 6.96878398 53.39526974 8.73767218 49.375 13.6875 C48.37229929 14.98359221 47.37245413 16.28189703 46.375 17.58203125 C45.56482422 18.62931396 45.56482422 18.62931396 44.73828125 19.69775391 C41.49020469 23.99963059 38.44526751 28.44540461 35.375 32.875 C34.17539497 34.60219892 32.97494384 36.32881067 31.7734375 38.0546875 C31.26216309 38.79187012 30.75088867 39.52905273 30.22412109 40.28857422 C29 42 29 42 28 43 C41.365 43.495 41.365 43.495 55 44 C55 48.62 55 53.24 55 58 C36.19 58 17.38 58 -2 58 C-2 50.16909091 -2 50.16909091 1.625 45.8125 C6.11134842 40.19027674 10.27657142 34.4115019 14.375 28.5 C15.56975099 26.78085963 16.76503388 25.06208875 17.9609375 23.34375 C18.47446777 22.60318359 18.98799805 21.86261719 19.51708984 21.09960938 C20.97275906 19.03856966 22.48604203 17.01861062 24 15 C16.08 14.67 8.16 14.34 0 14 C0 9.38 0 4.76 0 0 Z " fill="#D8492A" transform="translate(353,270)"/>
<path d="M0 0 C8.25 0 16.5 0 25 0 C25 7.59 25 15.18 25 23 C16.75 23 8.5 23 0 23 C0 15.41 0 7.82 0 0 Z " fill="#D6482A" transform="translate(353,243)"/>
<path d="M0 0 C3.64256556 1.65571162 5.99511125 3.5178248 8 7 C8 8.32 8 9.64 8 11 C0.41 11 -7.18 11 -15 11 C-13.91910497 5.59552487 -12.98080159 4.49533798 -9 1 C-5.93570224 -0.53214888 -3.3834358 -0.22938548 0 0 Z " fill="#1E303E" transform="translate(247,218)"/>
</svg>
