<svg width="280" height="152" viewBox="0 0 280 152" fill="none" xmlns="http://www.w3.org/2000/svg">
<g clip-path="url(#clip0_1006_18)">
<path d="M0 0H280V152H0V0Z" fill="black"/>
<path d="M379.125 -25.4351L273.078 191.622C266.66 204.758 245.937 208.627 235.639 198.612L32.0058 0.567433C20.7038 -10.4244 31.2625 -28.4969 49.6457 -29.6254L359.326 -48.6373C374.74 -49.5835 385.03 -37.5233 379.125 -25.4351Z" stroke="#EE7FF5" stroke-width="2"/>
<path d="M200.519 -45.3778L399.246 175.937C409.917 187.821 403.473 203.734 387.573 204.768L-35.8735 232.289C-54.8115 233.519 -68.7968 213.382 -57.6083 200.992L167.111 -47.844C175.079 -56.6668 191.469 -55.4569 200.519 -45.3778Z" fill="white"/>
<path d="M240.914 134.526C236.418 121.548 214.07 103.673 202.742 96.3548C197.98 93.2788 187.055 88.5577 179.977 85.5947C179.977 85.5947 182.996 90.8148 176.676 95.8869C176.676 95.8869 180.973 130.554 180.973 145.789C180.973 161.025 181.699 181.392 181.699 181.392L197.715 180.838C197.715 180.838 200.715 177.388 200.613 166.448C200.512 155.509 199.145 132.569 199.145 132.569L212.73 137.973L207.352 145.614C206.461 146.757 206.449 148.394 206.516 149.903C217.234 156.835 217.754 162.507 217.754 162.507C217.754 162.507 221.105 163.86 223.977 161.992C230.09 157.996 244.508 144.893 240.914 134.526Z" fill="#EE7FF5"/>
<path d="M151.707 79.4898C151.707 79.4898 139.207 77.1507 129.086 77.603C118.965 78.0552 111.484 84.4568 89.1171 99.4353C71.1952 111.42 68.3319 117.802 69.3475 127.088C70.1288 134.301 81.0273 149.993 91.2968 160.616C98.832 168.414 101.035 170.192 103.652 169.03C106.269 167.868 110.441 165.732 110.441 165.732L107.512 162.64L119.445 151.042C120.125 149.303 117.75 146.11 116.004 144.371C114.258 142.632 100.016 127.997 100.016 127.997C102.195 121.615 119.445 116.301 119.445 116.301C119.445 116.301 126.371 133.946 127.098 139.459C127.824 144.971 125.926 158.359 125.926 158.359C125.926 158.359 137.387 170.792 136.512 172.371C135.637 173.95 133.25 175.93 133.25 175.93C143.5 183.1 163.769 183.467 163.769 183.467L164.277 97.6965C148.262 94.7219 151.707 79.4898 151.707 79.4898Z" fill="#EE7FF5"/>
<path d="M245.467 134.012C240.893 120.803 218.756 102.25 207.92 95.2478C203.014 92.0782 191.514 87.1149 184.435 84.1832C184.398 84.1174 184.342 84.0636 184.275 84.0274L178.717 81.1735C178.506 78.8928 178.326 74.9357 179.06 73.9142C179.658 73.1072 181.947 71.9651 183.791 71.0645C185.353 70.2848 186.674 69.6415 187.189 69.1152C190.521 65.8364 191.025 57.9144 190.381 51.4894C191.237 50.8091 191.868 49.8882 192.194 48.8457C192.52 47.8032 192.525 46.6869 192.209 45.6415C192.011 44.9783 191.686 44.3599 191.252 43.8209C192.814 41.5636 193.162 39.0645 192.217 36.9514C191.166 34.6122 188.701 33.0528 185.443 32.6629C180.529 32.082 178.537 29.8014 176.775 27.7858C175.318 26.1211 173.943 24.5422 171.236 24.277C161.408 23.3843 153.685 26.2262 147.635 32.9241C144.056 36.8929 141.736 41.9922 141.268 46.9162C140.756 52.2729 142.439 57.1773 145.99 60.7251C147.221 61.9532 148.517 63.0918 149.658 64.0938C152.033 66.1756 154.084 67.9924 153.881 69.162C153.791 69.6766 153.217 70.1404 152.182 70.5497C152.076 70.5829 151.984 70.6496 151.92 70.7397C151.856 70.8298 151.823 70.9384 151.826 71.0489C151.826 71.2126 151.846 71.6571 153.545 72.1834C154.639 72.5185 155.776 72.6916 156.92 72.6978C158.482 72.6978 160.119 72.3081 161.217 71.2126C161.549 73.7935 161.674 76.1013 161.287 77.6686L155.17 77.423H155.135C148.021 75.9922 136.385 74.3041 129.994 76.8694C117.865 81.7427 91.8534 97.727 79.912 108.745C69.4198 118.421 70.5956 126.289 75.5917 135.127C82.8807 148.02 98.9003 163.867 101.408 165.762C102.084 166.245 102.901 166.493 103.732 166.464C106.076 166.464 108.736 164.99 109.853 164.308L110.119 164.487C110.18 164.525 110.25 164.546 110.322 164.546C110.369 164.545 110.415 164.536 110.459 164.519C110.481 164.507 110.501 164.494 110.521 164.48L116.029 169.244C117.777 173.894 121.283 177.674 125.795 179.77C125.677 180.077 125.628 180.405 125.653 180.733C125.677 181.061 125.774 181.379 125.935 181.665C126.459 182.511 127.607 182.901 128.885 183.115L125.857 200.07C125.572 200.047 125.291 200.027 125.014 200C124.916 199.992 124.82 200.02 124.743 200.079C124.665 200.138 124.613 200.224 124.596 200.32L122.252 213.412C122.234 213.513 122.256 213.617 122.315 213.702C122.373 213.786 122.463 213.845 122.564 213.864H122.635C122.728 213.865 122.818 213.833 122.89 213.774C122.961 213.715 123.009 213.632 123.025 213.54L125.322 200.799C137.392 201.825 144.853 197.832 149.006 194.285C153.56 190.386 155.17 186.285 155.236 186.097C155.238 186.077 155.238 186.056 155.236 186.035C158.455 186.277 161.264 186.343 163.307 186.343C165.451 186.343 166.752 186.273 166.803 186.269C166.902 186.263 166.996 186.219 167.064 186.147C167.132 186.074 167.17 185.979 167.17 185.879V180.421C167.326 179.076 167.432 176.183 167.498 172.234C169.478 172.285 171.26 172.304 172.846 172.304C180.994 172.304 184.154 171.77 184.31 171.743C184.432 174.371 184.537 176.526 184.611 178.07C184.685 179.614 184.724 180.292 184.767 180.671C184.769 180.681 184.769 180.692 184.767 180.702C184.767 180.702 184.767 180.737 184.767 180.757V185.735C184.767 185.83 184.801 185.922 184.863 185.994C184.926 186.066 185.013 186.113 185.107 186.125C186.029 186.233 186.957 186.285 187.885 186.281C191.307 186.209 194.712 185.77 198.041 184.971C198.267 186.92 199.139 195.821 198.705 213.287C198.705 213.39 198.746 213.489 198.819 213.562C198.893 213.635 198.992 213.677 199.096 213.677C199.199 213.677 199.299 213.635 199.372 213.562C199.445 213.489 199.486 213.39 199.486 213.287C199.928 195.501 199.017 186.577 198.803 184.768C199.564 184.581 200.041 184.445 200.119 184.421C200.19 184.401 200.253 184.361 200.302 184.307C200.351 184.252 200.384 184.185 200.396 184.113L201.123 179.852H202.041C203.943 179.852 206.103 179.758 206.971 178.573C207.158 178.293 207.28 177.975 207.328 177.642C207.376 177.308 207.349 176.969 207.248 176.647C209.1 175.708 218.596 170.632 218.025 165.458L218.807 164.714C218.863 164.774 218.937 164.815 219.017 164.83H219.088C219.141 164.83 219.193 164.818 219.241 164.797C219.29 164.776 219.333 164.744 219.369 164.706L221.76 162.176C222.788 162.389 223.835 162.5 224.885 162.507C226.326 162.507 227.92 162.265 229.181 161.45C232.494 159.298 237.439 154.99 241.014 150.222C245.506 144.242 247.064 138.612 245.467 134.012ZM175.307 41.7036C175.986 41.7031 176.656 41.8648 177.26 42.1754C177.845 42.4799 178.362 42.9011 178.778 43.4127C179.193 43.9244 179.5 44.5159 179.678 45.1504C180.459 47.778 179.135 50.6082 176.713 51.4464C176.167 51.6369 175.588 51.7143 175.011 51.6741C174.434 51.6339 173.871 51.477 173.357 51.2127C172.772 50.9081 172.255 50.4869 171.839 49.9753C171.424 49.4637 171.117 48.8725 170.939 48.238C170.158 45.6104 171.482 42.7798 173.904 41.9416C174.355 41.7847 174.829 41.7042 175.307 41.7036ZM159.541 62.1365L159.787 62.1601C159.709 62.1601 159.627 62.1481 159.533 62.1365H159.541ZM186.635 68.581C186.209 68.9982 184.799 69.696 183.435 70.3666C181.322 71.4114 179.139 72.4914 178.424 73.4505C177.228 75.0684 177.943 81.4779 178.033 82.203C178.031 82.2212 178.031 82.2393 178.033 82.2574C178.142 83.9027 178.213 87.7584 176.685 89.6649C176.653 89.7056 176.629 89.7525 176.615 89.8027C176.601 89.8529 176.597 89.9055 176.603 89.9573L176.857 91.8715C173.193 94.3979 167.928 92.6941 166.912 92.3277V90.121C166.912 90.046 166.89 89.9726 166.849 89.9097C166.808 89.8467 166.75 89.7969 166.681 89.7661C160.56 86.9591 160.764 81.8909 161.26 79.501C161.302 79.4736 161.339 79.4394 161.369 79.3997C163.076 77.0605 162.127 71.4659 161.119 65.5478C160.904 64.2807 160.682 62.967 160.486 61.7078C160.472 61.6148 160.425 61.5299 160.353 61.469C160.281 61.4081 160.19 61.3751 160.096 61.3761C158.988 61.3254 157.912 60.9927 156.971 60.4095C155.955 59.7974 155.318 58.2495 155.244 56.3235C155.244 56.2144 155.244 56.1054 155.244 55.9923C155.389 53.926 156.139 52.2028 157.072 51.8013C157.557 51.5907 158.111 51.7389 158.721 52.238C159.654 53.0177 160.474 53.7972 161.135 54.4054C162.42 55.6218 162.9 56.0782 163.353 55.7741C163.588 55.6221 163.658 55.3646 163.533 54.7915C163.709 54.4328 163.533 53.7078 162.85 51.9417C162.22 50.3584 161.852 48.6834 161.76 46.9824C161.838 44.9902 162.498 43.5634 163.322 42.7407C164.463 41.6218 166.096 41.4037 167.908 42.1327C169.083 42.5745 170.356 42.6918 171.592 42.4719C170.84 43.2486 170.31 44.2109 170.055 45.26C169.801 46.3091 169.831 47.4069 170.142 48.4406C170.355 49.1741 170.714 49.8572 171.197 50.4493C171.681 51.0414 172.278 51.5303 172.955 51.8869C173.668 52.2517 174.458 52.443 175.26 52.4447C175.826 52.4446 176.389 52.3482 176.924 52.1599C179.732 51.1813 181.283 47.93 180.381 44.9086C180.168 44.1751 179.809 43.492 179.326 42.8999C178.843 42.3078 178.245 41.8189 177.568 41.4623C177.147 41.2497 176.699 41.0947 176.236 41.002L176.799 40.772C180.853 39.0917 184.369 37.6531 186.955 42.0391C186.639 42.0812 186.327 42.1546 186.025 42.2576C183.478 43.1465 182.072 46.0899 182.9 48.8228C183.093 49.4871 183.417 50.1056 183.855 50.6416C184.293 51.1775 184.834 51.6198 185.447 51.9417C186.089 52.2778 186.804 52.4534 187.529 52.4534C188.254 52.4534 188.969 52.2778 189.611 51.9417C190.182 57.8911 189.713 65.5557 186.635 68.581ZM189.857 50.9165C189.769 50.94 189.691 50.9936 189.639 51.0684C189.378 51.229 189.1 51.3597 188.81 51.4582C188.324 51.6284 187.808 51.6974 187.294 51.6612C186.781 51.6249 186.28 51.4843 185.822 51.2477C185.3 50.9772 184.84 50.6027 184.469 50.1474C184.098 49.6921 183.825 49.1655 183.666 48.6005C182.967 46.2613 184.15 43.7505 186.31 42.9981C186.714 42.8592 187.138 42.7881 187.564 42.7876C188.168 42.7881 188.762 42.9325 189.299 43.2087C189.82 43.4792 190.281 43.8536 190.652 44.309C191.023 44.7643 191.296 45.2908 191.455 45.8558C191.739 46.7605 191.739 47.7302 191.454 48.6348C191.17 49.5393 190.616 50.3355 189.865 50.9165H189.857ZM101.881 165.146C99.3964 163.267 83.5214 147.548 76.2714 134.737C71.3221 125.981 70.2948 118.671 80.4432 109.31C92.3299 98.3431 118.217 82.4366 130.287 77.5867C136.338 75.154 147.642 76.7527 154.709 78.1445C153.889 83.4583 154.709 87.7466 157.174 90.8889C160.244 94.8109 164.85 95.6881 166.158 95.8597C166.201 98.7252 166.369 109.318 166.517 122.113C166.541 125.388 166.568 128.998 166.596 132.971C166.724 152.148 166.572 171.661 166.568 171.856C166.568 171.911 166.58 171.966 166.603 172.016C166.626 172.067 166.659 172.112 166.701 172.148C166.646 175.825 166.553 178.589 166.416 180.031C164.002 180.063 161.767 180.031 159.701 179.953C153.658 179.677 144.889 178.737 138.092 175.832C138.299 175.4 138.479 174.954 138.631 174.499C139.881 173.462 140.014 173.029 140.193 171.981C140.232 171.758 140.279 171.505 140.346 171.201C140.432 170.811 140.615 169.996 132.459 160.425C131.338 159.107 130.209 157.801 129.162 156.605C129.217 156.577 129.264 156.538 129.301 156.489C129.338 156.44 129.362 156.384 129.373 156.324C130.177 150.843 130.617 145.316 130.689 139.778C130.728 134.296 121.881 113.716 121.506 112.842C121.465 112.747 121.389 112.672 121.293 112.633C121.197 112.595 121.089 112.595 120.994 112.636C119.135 113.415 102.771 120.308 101.787 124.331C101.722 124.569 101.716 124.818 101.77 125.058C101.824 125.298 101.935 125.521 102.096 125.708C106.174 130.569 110.498 134.862 113.974 138.312C116.197 140.515 118.115 142.417 119.373 143.887C120.814 145.564 121.174 146.76 121.267 147.443C121.211 147.404 121.145 147.38 121.076 147.375C121.008 147.369 120.939 147.382 120.877 147.411C120.717 147.482 116.881 149.244 110.721 155.462C108.318 157.895 106.932 159.579 106.955 160.998C106.961 161.279 107.026 161.555 107.145 161.809C107.264 162.064 107.435 162.291 107.646 162.476C108.252 163.049 108.76 163.478 109.154 163.79C107.58 164.756 103.85 166.639 101.889 165.158L101.881 165.146ZM124.416 150.905L122.029 148.269C122.069 148.194 122.087 148.108 122.08 148.023V147.938C122.08 147.415 122.053 145.825 119.963 143.392C118.682 141.899 116.756 139.984 114.521 137.77C111.056 134.331 106.748 130.055 102.689 125.22C102.608 125.127 102.552 125.014 102.526 124.892C102.5 124.771 102.505 124.645 102.541 124.526C103.279 121.521 115.736 115.704 120.935 113.517C122.131 116.324 129.939 134.846 129.92 139.786C129.848 145.216 129.423 150.636 128.646 156.012C126.56 153.63 124.904 151.786 124.494 151.333C124.513 151.297 124.526 151.257 124.533 151.216C124.537 151.162 124.529 151.106 124.511 151.055C124.492 151.003 124.462 150.956 124.424 150.916L124.416 150.905ZM126.592 181.275C126.353 180.885 126.369 180.378 126.642 179.715C126.682 179.618 126.682 179.509 126.642 179.412C126.622 179.364 126.592 179.32 126.554 179.284C126.517 179.248 126.472 179.22 126.424 179.201C126.353 179.174 119.459 176.472 116.732 168.877C116.709 168.815 116.67 168.76 116.619 168.717L110.998 163.856C110.971 163.839 110.944 163.823 110.916 163.809C111.619 162.515 114.377 158.468 123.873 151.813C131.482 160.265 139.549 169.86 139.58 171.033C139.51 171.353 139.463 171.618 139.42 171.848C139.26 172.764 139.217 173.018 138.041 173.973C137.98 174.022 137.935 174.089 137.912 174.164C137.719 174.755 137.477 175.328 137.189 175.879C137.056 176.117 136.107 177.739 134.904 178.269H134.881L134.81 178.316L134.779 178.347C134.76 178.365 134.744 178.386 134.732 178.409L134.709 178.444C134.697 178.472 134.688 178.501 134.682 178.53C134.683 178.539 134.683 178.549 134.682 178.558C134.59 179.182 134.442 179.796 134.24 180.394C134.143 180.636 134.041 180.881 133.939 181.111C133.517 181.965 132.881 182.671 131.943 182.612L131.353 182.569C129.603 182.491 127.236 182.32 126.6 181.287L126.592 181.275ZM148.435 193.75C141.642 199.54 133.107 200.503 126.635 200.144L129.65 183.244C130.201 183.31 130.76 183.349 131.283 183.388L131.865 183.435H132.076C133.197 183.435 133.955 182.686 134.467 181.786C140.912 184.343 148.318 185.505 154.412 186.012C153.01 188.996 150.973 191.64 148.443 193.758L148.435 193.75ZM217.31 165.092C217.265 165.135 217.23 165.189 217.209 165.249C217.189 165.309 217.183 165.372 217.193 165.435C218.021 170.542 206.697 176.094 206.58 176.148C206.495 176.19 206.429 176.26 206.392 176.347C206.355 176.434 206.351 176.531 206.381 176.62C206.6 177.295 206.576 177.79 206.307 178.18C205.592 179.158 203.209 179.146 201.471 179.139H201.225L201.244 179.022C203.361 176.971 203.838 167.661 203.623 157.037L207.467 152.546C209.314 153.536 215.314 157.17 218.404 164.035L217.31 165.092ZM209.498 148.612H209.474L206.787 151.626C206.725 151.697 206.692 151.787 206.692 151.881C206.692 151.975 206.725 152.066 206.787 152.137L203.615 155.844C203.4 147.166 202.764 137.778 202.209 130.838L216.291 137.31L210.431 144.569C209.564 145.704 209.459 147.213 209.494 148.62L209.498 148.612ZM240.357 149.821C236.842 154.499 231.982 158.749 228.724 160.866C226.721 162.168 223.584 161.794 222.084 161.513C221.373 159.56 220.37 157.726 219.107 156.074C216.696 153.048 213.692 150.543 210.279 148.714C210.24 147.411 210.307 146.012 211.06 145.069L217.209 137.439C219.029 135.586 221.079 133.974 223.31 132.644C223.399 132.591 223.464 132.505 223.49 132.404C223.515 132.304 223.5 132.198 223.447 132.109C223.394 132.02 223.308 131.956 223.208 131.93C223.108 131.905 223.001 131.92 222.912 131.973C220.695 133.294 218.651 134.886 216.826 136.71L202.142 129.965C201.713 124.694 201.361 121.018 201.295 120.464C201.29 120.413 201.275 120.363 201.251 120.318C201.226 120.272 201.193 120.232 201.153 120.199C201.113 120.166 201.067 120.142 201.018 120.128C200.968 120.113 200.916 120.108 200.865 120.113C200.814 120.118 200.765 120.134 200.719 120.158C200.674 120.183 200.635 120.216 200.602 120.256C200.57 120.296 200.546 120.341 200.531 120.391C200.517 120.44 200.512 120.491 200.517 120.542C200.775 123.123 201.08 126.449 201.381 130.191C201.379 130.219 201.379 130.246 201.381 130.273C202.81 148.074 204.197 175.341 200.701 178.48C195.209 180.253 187.291 180.394 185.521 180.406C185.385 177.868 184.654 163.349 184.076 146.336C183.947 142.612 183.615 138.226 183.17 133.622C183.17 133.587 183.17 133.552 183.17 133.517C182.478 123.77 179.685 104.667 178.408 96.1913C179.488 95.5816 180.454 94.7902 181.264 93.8521C182.67 92.2536 184.33 89.4428 184.486 85.0295C191.545 87.9613 202.728 92.7993 207.51 95.8871C218.267 102.838 240.232 121.228 244.744 134.25C246.631 139.755 243.396 145.774 240.346 149.829L240.357 149.821Z" fill="black"/>
<path d="M196.401 42.0233L200.038 39.9727C200.091 39.9482 200.139 39.9127 200.178 39.8687C200.218 39.8248 200.247 39.7732 200.266 39.7172C200.284 39.6612 200.29 39.6018 200.284 39.5432C200.278 39.4846 200.26 39.4281 200.231 39.3768C200.202 39.3256 200.163 39.2807 200.115 39.2455C200.068 39.2103 200.014 39.1853 199.956 39.172C199.899 39.1588 199.839 39.1576 199.781 39.1686C199.723 39.1795 199.668 39.2026 199.62 39.236L195.983 41.2866C195.917 41.3214 195.863 41.374 195.827 41.4385C195.78 41.5189 195.761 41.6125 195.773 41.7046C195.785 41.7967 195.826 41.8823 195.891 41.9486C195.956 42.015 196.041 42.0581 196.133 42.0716C196.226 42.0851 196.319 42.0681 196.401 42.0233V42.0233Z" fill="black"/>
<path d="M197.32 49.677C197.306 49.7224 197.3 49.7699 197.301 49.8175C197.309 49.9264 197.359 50.028 197.441 50.1007C197.522 50.1735 197.629 50.2117 197.738 50.2073L201.832 50.0787C201.891 50.0821 201.95 50.073 202.006 50.0524C202.061 50.0317 202.112 49.9999 202.154 49.9587C202.196 49.9175 202.23 49.8681 202.252 49.8133C202.274 49.7585 202.284 49.6998 202.282 49.6408C202.28 49.5818 202.266 49.5239 202.241 49.4706C202.215 49.4174 202.179 49.3701 202.134 49.3317C202.089 49.2933 202.036 49.2646 201.98 49.2475C201.923 49.2305 201.864 49.2255 201.805 49.2327L197.711 49.3614C197.621 49.3658 197.534 49.3986 197.464 49.4554C197.394 49.5122 197.344 49.5898 197.32 49.677V49.677Z" fill="black"/>
<path d="M198.505 60.4532C198.595 60.5136 198.705 60.5371 198.812 60.5194C198.919 60.5018 199.015 60.4441 199.081 60.358C199.147 60.2719 199.177 60.1642 199.166 60.0564C199.155 59.9487 199.102 59.8493 199.02 59.7785L196.098 57.5524C196.054 57.5186 196.004 57.4939 195.95 57.4797C195.896 57.4655 195.84 57.4622 195.785 57.4698C195.729 57.4774 195.676 57.496 195.628 57.5242C195.58 57.5525 195.538 57.5898 195.505 57.6343C195.468 57.6781 195.442 57.7302 195.431 57.7862C195.411 57.8665 195.414 57.9509 195.441 58.0291C195.469 58.1072 195.518 58.1761 195.583 58.2271L198.505 60.4532Z" fill="black"/>
<path d="M120.505 76.1402C120.583 76.1404 120.659 76.1174 120.724 76.074C120.774 76.0428 125.782 72.7133 129.864 72.7133C129.968 72.7133 130.067 72.6722 130.14 72.5991C130.214 72.526 130.255 72.4269 130.255 72.3235C130.255 72.2201 130.214 72.1209 130.14 72.0478C130.067 71.9747 129.968 71.9336 129.864 71.9336C125.544 71.9336 120.489 75.2864 120.286 75.4424C120.216 75.489 120.164 75.557 120.136 75.6358C120.108 75.7146 120.106 75.8002 120.13 75.8802C120.155 75.9602 120.205 76.03 120.272 76.0797C120.339 76.1294 120.421 76.156 120.505 76.1558V76.1402Z" fill="black"/>
<path d="M124.134 70.3352C124.199 70.3345 124.264 70.3184 124.322 70.2884C125.51 69.6723 126.817 69.3174 128.154 69.2475C128.257 69.2475 128.357 69.2064 128.43 69.1333C128.503 69.0602 128.544 68.961 128.544 68.8576C128.544 68.7542 128.503 68.6551 128.43 68.582C128.357 68.5089 128.257 68.4678 128.154 68.4678C126.685 68.5353 125.249 68.9226 123.947 69.6023C123.901 69.6268 123.861 69.6599 123.829 69.6998C123.797 69.7397 123.773 69.7857 123.758 69.835C123.744 69.8842 123.739 69.9358 123.744 69.9869C123.75 70.0379 123.766 70.0877 123.79 70.1327C123.824 70.1942 123.874 70.2455 123.934 70.2812C123.995 70.3168 124.064 70.3354 124.134 70.3352Z" fill="black"/>
</g>
<defs>
<clipPath id="clip0_1006_18">
<path d="M0 0H280V152H0V0Z" fill="white"/>
</clipPath>
</defs>
</svg>
