<svg width="280" height="152" viewBox="0 0 280 152" fill="none" xmlns="http://www.w3.org/2000/svg">
<g clip-path="url(#clip0_1201_1610)">
<path d="M0 0H280V152H0V0Z" fill="black"/>
<path d="M379.125 -25.4351L273.078 191.622C266.66 204.758 245.937 208.627 235.639 198.612L32.0058 0.567433C20.7038 -10.4244 31.2625 -28.4969 49.6457 -29.6254L359.326 -48.6373C374.74 -49.5835 385.03 -37.5233 379.125 -25.4351Z" stroke="#00CDDD" stroke-width="2"/>
<path d="M200.519 -45.3778L399.246 175.937C409.917 187.821 403.473 203.734 387.573 204.768L-35.8735 232.289C-54.8115 233.519 -68.7968 213.382 -57.6083 200.992L167.111 -47.844C175.079 -56.6668 191.469 -55.4569 200.519 -45.3778Z" fill="white"/>
<g clip-path="url(#clip1_1201_1610)">
<path d="M109.707 144.633L128.013 100.477C128.013 100.43 129.432 96.0458 134.216 91.642C142.223 84.2684 153.382 82.5099 161.354 82.3302C163.931 82.1817 164.307 77.6645 164.362 76.2773H185.28C185.792 77.6606 188.241 83.8542 191.108 84.3231L191.71 84.413C208.494 86.8865 219.325 94.0021 223.037 104.986C228.533 121.242 236.52 147.348 237.861 151.752L234.192 150.951C233.915 147.825 232.436 144.73 229.78 141.745C219.13 129.772 206.312 111.52 203.574 105.952C201.113 100.911 197.707 100.09 196.963 99.9885C195.428 98.5799 193.802 97.2745 192.094 96.081C190.799 95.2408 188.573 95.1041 186.927 95.1393V94.8384L187.075 85.7298C187.075 84.3113 186.715 83.2523 186.011 82.5802C185.677 82.2863 185.286 82.065 184.862 81.9305C184.437 81.7959 183.99 81.751 183.547 81.7987L169.963 81.6112C166.834 81.3689 165.476 81.5252 164.729 82.2169C164.521 82.4304 164.357 82.6829 164.247 82.9598C164.137 83.2368 164.083 83.5328 164.088 83.8307C163.462 84.1941 163.278 84.8076 163.278 85.7415L163.466 97.8941C162.566 97.8941 161.51 97.8941 160.337 97.8941C161.092 96.9368 162.249 95.1588 161.733 93.8615C161.651 93.613 161.517 93.3852 161.338 93.1937C161.16 93.0021 160.942 92.8513 160.7 92.7517C159.801 92.4078 158.702 92.8494 157.646 93.373C157.348 93.5272 157.018 93.6076 156.683 93.6076C156.348 93.6076 156.018 93.5272 155.721 93.373C155.672 93.3442 155.617 93.3264 155.56 93.321C155.504 93.3156 155.446 93.3227 155.393 93.3417C152.964 94.2131 150.308 97.2493 149.737 97.9527C148.853 97.9722 145.156 98.1794 143.901 100.149C142.645 102.118 119.689 134.879 118.887 136.02C116.725 138.33 115.133 141.112 114.236 144.144L109.707 144.633Z" fill="#00CDDD"/>
<path d="M199.569 123.461C198.372 122.426 196.017 120.417 188.883 119.085C187.831 118.909 186.689 118.745 185.437 118.6C185.222 119.917 184.287 121.46 182.116 121.46L168.629 120.905C166.185 120.905 164.264 119.229 164.264 117.838V117.346C157.587 119.413 146.272 121.902 146.272 121.902L141.727 137.028C140.651 137.45 139.669 137.841 138.762 138.2V158.352H205.409V138.032L204.802 137.313C204.802 137.313 201.133 124.825 199.569 123.461Z" fill="#00CDDD"/>
<path d="M164.068 83.9941C163.889 83.9942 163.714 84.0471 163.565 84.1465C163.417 84.2459 163.301 84.3871 163.232 84.5522C163.164 84.7174 163.147 84.8992 163.182 85.0744C163.217 85.2496 163.303 85.4104 163.43 85.5365C163.557 85.6626 163.718 85.7482 163.894 85.7826C164.069 85.817 164.251 85.7985 164.416 85.7296C164.581 85.6606 164.722 85.5444 164.821 85.3955C164.92 85.2465 164.972 85.0716 164.971 84.8929C164.971 84.7746 164.948 84.6573 164.902 84.548C164.857 84.4387 164.79 84.3395 164.706 84.256C164.622 84.1725 164.523 84.1063 164.413 84.0614C164.304 84.0165 164.186 83.9936 164.068 83.9941V83.9941Z" fill="black"/>
<path d="M172.969 40.5771C171.828 40.5764 170.713 40.9136 169.764 41.5462C168.815 42.1788 168.076 43.0784 167.639 44.131C167.202 45.1836 167.087 46.342 167.31 47.4597C167.532 48.5773 168.081 49.604 168.888 50.4097C169.694 51.2155 170.722 51.7641 171.841 51.9862C172.96 52.2083 174.119 52.094 175.173 51.6576C176.226 51.2211 177.127 50.4823 177.76 49.5345C178.393 48.5868 178.731 47.4726 178.73 46.3331C178.728 44.8072 178.12 43.3443 177.04 42.2653C175.96 41.1864 174.496 40.5792 172.969 40.5771V40.5771ZM172.969 51.3114C171.983 51.3121 171.019 51.0208 170.199 50.4742C169.379 49.9277 168.74 49.1505 168.362 48.2409C167.984 47.3313 167.885 46.3302 168.077 45.3642C168.269 44.3983 168.743 43.5109 169.44 42.8143C170.136 42.1177 171.024 41.6431 171.991 41.4507C172.958 41.2583 173.96 41.3567 174.871 41.7334C175.782 42.1101 176.56 42.7481 177.108 43.5669C177.656 44.3856 177.948 45.3483 177.948 46.3331C177.947 47.6524 177.422 48.9174 176.489 49.8507C175.555 50.784 174.289 51.3093 172.969 51.3114V51.3114Z" fill="black"/>
<path d="M117.281 72.4636C126.997 72.4636 134.883 64.9102 134.883 55.6258C134.883 46.3414 126.982 38.7842 117.281 38.7842C107.581 38.7842 99.6602 46.3375 99.6602 55.6258C99.6602 64.9141 107.565 72.4636 117.281 72.4636ZM117.281 39.5657C126.563 39.5657 134.1 46.7712 134.1 55.6258C134.1 64.4804 126.547 71.6821 117.281 71.6821C108.015 71.6821 100.442 64.4804 100.442 55.6258C100.442 46.7712 107.995 39.5657 117.281 39.5657V39.5657Z" fill="black"/>
<path d="M117.38 62.4326C117.426 62.4813 117.481 62.5199 117.542 62.5462C117.603 62.5724 117.669 62.5856 117.736 62.585C117.803 62.5852 117.87 62.5719 117.932 62.5457C117.993 62.5195 118.049 62.481 118.096 62.4326L125.207 55.0082C125.282 54.9321 125.328 54.8313 125.335 54.7244C125.342 54.6175 125.311 54.5115 125.246 54.426L121.534 49.4828C121.494 49.4296 121.443 49.3851 121.385 49.352C121.326 49.319 121.262 49.298 121.196 49.2903C121.129 49.2827 121.062 49.2885 120.998 49.3075C120.933 49.3265 120.874 49.3582 120.822 49.4008L117.736 51.9212L114.654 49.3969C114.599 49.3534 114.537 49.3212 114.469 49.3024C114.402 49.2836 114.332 49.2786 114.263 49.2875C114.196 49.2946 114.132 49.3153 114.075 49.3482C114.017 49.3812 113.966 49.4256 113.926 49.4789L110.211 54.4221C110.146 54.5085 110.115 54.6149 110.122 54.7223C110.129 54.8297 110.174 54.9311 110.25 55.0082L117.38 62.4326Z" fill="black"/>
<path d="M218.445 72.4635C228.099 72.4635 235.957 64.957 235.957 55.7273C235.957 46.4976 228.099 38.9912 218.445 38.9912C208.792 38.9912 200.93 46.4976 200.93 55.7273C200.93 64.957 208.788 72.4635 218.445 72.4635ZM218.445 39.7727C227.668 39.7727 235.174 46.9314 235.174 55.7273C235.174 64.5233 227.668 71.682 218.445 71.682C209.222 71.682 201.712 64.5272 201.712 55.7273C201.712 46.9275 209.226 39.7727 218.445 39.7727Z" fill="black"/>
<path d="M212.704 61.7716C212.769 61.8388 212.848 61.8922 212.934 61.9284C213.021 61.9647 213.114 61.9831 213.208 61.9826C213.398 61.9818 213.579 61.9059 213.713 61.7716L218.442 57.0474L223.171 61.7716C223.236 61.8388 223.315 61.8922 223.401 61.9284C223.488 61.9647 223.581 61.9831 223.675 61.9826C223.816 61.982 223.954 61.9398 224.071 61.8612C224.188 61.7826 224.28 61.6711 224.333 61.5408C224.387 61.4106 224.402 61.2672 224.374 61.1289C224.347 60.9906 224.279 60.8635 224.18 60.7635L219.451 56.0392L224.18 51.3188C224.304 51.1831 224.37 51.005 224.366 50.8213C224.362 50.6377 224.288 50.4626 224.158 50.3325C224.028 50.2023 223.853 50.1271 223.669 50.1223C223.485 50.1175 223.307 50.1836 223.171 50.3068L218.442 55.031L213.713 50.3068C213.576 50.1836 213.398 50.1175 213.214 50.1223C213.03 50.1271 212.855 50.2023 212.725 50.3325C212.596 50.4626 212.521 50.6377 212.517 50.8213C212.513 51.005 212.58 51.1831 212.704 51.3188L217.432 56.0392L212.704 60.7635C212.637 60.8293 212.583 60.9077 212.547 60.9943C212.511 61.0808 212.492 61.1738 212.492 61.2676C212.492 61.3614 212.511 61.4543 212.547 61.5408C212.583 61.6274 212.637 61.7058 212.704 61.7716V61.7716Z" fill="black"/>
<path d="M148.284 89.5587C148.323 89.5941 148.369 89.6211 148.42 89.6381C148.47 89.6551 148.523 89.6618 148.576 89.6577C148.629 89.6536 148.68 89.6387 148.727 89.6141C148.774 89.5895 148.815 89.5557 148.849 89.5146C148.882 89.4735 148.907 89.426 148.921 89.3751C148.936 89.3242 148.94 89.2708 148.933 89.2183C148.926 89.1657 148.909 89.1152 148.882 89.0695C148.855 89.0239 148.819 88.9843 148.777 88.953L146.348 86.9796C146.268 86.9148 146.165 86.8843 146.063 86.8945C145.96 86.9048 145.866 86.955 145.8 87.0344C145.767 87.0741 145.743 87.1199 145.728 87.1691C145.713 87.2183 145.708 87.2701 145.713 87.3212C145.718 87.3724 145.733 87.4221 145.757 87.4674C145.782 87.5127 145.815 87.5528 145.855 87.5853L148.284 89.5587Z" fill="black"/>
<path d="M150.005 87.7459C150.034 87.8193 150.084 87.8824 150.149 87.9271C150.213 87.9717 150.29 87.9957 150.369 87.9959C150.417 87.9967 150.465 87.9874 150.51 87.9686C150.558 87.9504 150.602 87.9229 150.639 87.8877C150.677 87.8525 150.707 87.8104 150.728 87.7636C150.749 87.7167 150.761 87.6662 150.762 87.6149C150.764 87.5636 150.755 87.5125 150.737 87.4645L149.603 84.5455C149.565 84.4493 149.491 84.3719 149.396 84.3302C149.302 84.2885 149.194 84.2858 149.098 84.3229C149.05 84.3414 149.006 84.3693 148.968 84.4049C148.931 84.4405 148.901 84.4832 148.881 84.5304C148.86 84.5777 148.849 84.6285 148.848 84.68C148.847 84.7316 148.856 84.7828 148.875 84.8308L150.005 87.7459Z" fill="black"/>
<path d="M152.651 87.6557C152.692 87.6707 152.736 87.6785 152.78 87.679C152.86 87.679 152.939 87.6543 153.004 87.6082C153.07 87.562 153.12 87.4967 153.148 87.4212L154.192 84.4709C154.227 84.373 154.221 84.2653 154.176 84.1715C154.132 84.0777 154.051 84.0055 153.953 83.9707C153.855 83.936 153.747 83.9417 153.654 83.9864C153.56 84.0311 153.487 84.1112 153.453 84.2091L152.412 87.1594C152.378 87.2568 152.385 87.3636 152.429 87.4566C152.474 87.5495 152.554 87.6211 152.651 87.6557V87.6557Z" fill="black"/>
<path d="M228.911 169.61C227.607 166.536 226.277 163.647 224.921 160.943C227.045 159.157 228.754 156.932 229.931 154.421C233.381 153.94 235.439 152.959 236.045 151.494C236.197 151.078 236.245 150.631 236.186 150.192C236.127 149.753 235.961 149.335 235.705 148.974C235.255 147.501 226.564 118.956 220.7 101.61C216.942 90.4889 205.591 82.9981 188.744 80.5089L188.153 80.4191C185.908 80.0518 183.557 74.667 182.842 72.6273C182.815 72.551 182.765 72.485 182.699 72.4381C182.634 72.3912 182.555 72.3658 182.474 72.3655H181.379C180.988 71.6621 177.796 65.4608 181.48 63.1749C184.191 61.4907 184.445 56.2701 184.481 54.9494C185.554 54.7738 186.549 54.2784 187.335 53.5281C188.122 52.7778 188.663 51.8077 188.889 50.7448C189.081 49.6681 188.99 48.5599 188.625 47.529C188.259 46.498 187.632 45.5797 186.804 44.864L186.855 42.2458V42.2224C186.929 42.1812 186.988 42.1166 187.023 42.0387C188.799 37.799 188.501 32.6254 186.241 28.202C185.186 26.0952 183.676 24.2493 181.819 22.7981C179.962 21.347 177.805 20.3271 175.504 19.8124C166.957 17.8586 161.337 24.7047 159.467 27.4361C155.888 27.1704 153.263 27.7487 151.644 29.1828C150.169 30.4879 149.614 32.4808 150.04 34.9504C150.627 38.35 152.95 40.9876 154.847 42.6366C154.227 43.3009 153.783 44.1105 153.557 44.9909C153.331 45.8712 153.33 46.7942 153.555 47.6749C153.779 48.5557 154.221 49.3659 154.841 50.0314C155.46 50.6969 156.237 51.1962 157.1 51.4834C157.304 54.8556 157.883 57.587 158.665 58.517C159.866 59.9941 161.485 61.2758 162.909 62.4246L163.832 63.1631C163.875 63.2022 163.973 63.2882 164.133 63.4094C164.387 63.6243 164.63 63.8313 164.849 64.0267C166.664 65.6991 163.754 70.5798 162.479 72.3187C162.465 72.3392 162.455 72.3615 162.447 72.3851H160.914C160.81 72.3851 160.711 72.4263 160.638 72.4995C160.564 72.5728 160.523 72.6722 160.523 72.7758C160.523 74.3115 160.132 78.3324 158.254 78.4379C150.15 78.6216 138.771 80.4268 130.585 87.9919C125.664 92.5364 124.26 96.9481 124.213 97.1005L105.649 141.827C105.614 141.913 105.004 143.39 105.88 144.656C106.592 145.672 108.039 146.184 110.183 146.184H110.609C110.8 148.999 111.725 151.715 113.292 154.061C113.32 154.098 113.353 154.129 113.39 154.155C108.872 160.193 104.694 166.477 100.874 172.978C86.8236 196.732 85.1299 207.466 85.9709 211.3C86.1426 212.071 86.571 212.762 87.1863 213.259C87.8015 213.755 88.5672 214.029 89.3583 214.035H160.891C161.673 214.035 161.673 213.543 161.673 213.343L164.673 154.476C164.687 154.299 164.687 154.121 164.673 153.944C163.304 138.576 151.789 133.523 138.595 134.039L143.035 119.26C144.142 119.014 149.168 117.885 154.151 116.603C156.967 115.876 159.099 115.279 160.722 114.778V114.86C160.722 116.255 162.647 117.932 165.088 117.932L178.574 118.487C179.319 118.52 180.053 118.29 180.645 117.837C181.237 117.384 181.651 116.737 181.813 116.009C192.393 117.221 195.362 119.788 196.704 120.949C197.732 121.839 200.087 128.846 201.573 133.812L201.182 133.64C192.757 130.264 185.376 130.452 179.251 134.187C172.363 138.392 168.244 146.406 166.011 153.686C165.727 154.78 165.508 155.889 165.354 157.008L162.224 213.511C162.205 213.902 162.475 214.023 162.862 214.023C188.31 214.043 224.53 214.023 235.892 214.023C236.332 214.023 236.767 213.927 237.167 213.743C237.566 213.559 237.921 213.291 238.207 212.957C238.493 212.623 238.703 212.23 238.822 211.808C238.942 211.385 238.969 210.941 238.9 210.506C237.555 202.175 233.866 181.293 228.911 169.61ZM235.321 151.197C234.997 151.979 233.843 153.018 230.28 153.581C230.705 152.467 230.981 151.301 231.101 150.115C231.148 149.623 231.167 149.128 231.156 148.634L235.114 149.497C235.279 149.746 235.384 150.03 235.42 150.327C235.456 150.623 235.422 150.924 235.321 151.205V151.197ZM175.316 20.5783C177.505 21.0685 179.557 22.0392 181.323 23.4201C183.089 24.8009 184.526 26.5571 185.529 28.5614C187.551 32.4925 187.934 37.0292 186.62 40.886C185.838 38.5024 182.521 33.4616 168.627 29.3157C165.928 28.4658 163.156 27.8641 160.347 27.5181C162.338 24.7281 167.575 18.8081 175.316 20.5783ZM186.069 42.3904L186.033 44.27L183.565 43.0547C183.483 42.4647 183.237 40.7531 183.1 39.9286C183.08 39.8114 183.049 39.7021 183.025 39.5887C184.097 40.4586 185.113 41.3943 186.069 42.3904V42.3904ZM161.9 35.7084C162.318 35.4388 162.733 35.2044 163.151 34.9895C164.958 34.1617 166.913 33.706 168.899 33.6496C170.886 33.5932 172.863 33.9373 174.714 34.6612C172.124 34.5049 171.698 34.884 170.939 35.8726C170.195 36.8649 169.245 37.6847 168.154 38.2757C166.829 39.0776 165.319 39.5232 163.771 39.5691C162.222 39.615 160.688 39.2596 159.318 38.5375C159.86 37.3486 160.762 36.3592 161.896 35.7084H161.9ZM154.194 46.9427C154.067 45.977 154.246 44.9957 154.705 44.1366C155.165 43.2776 155.882 42.5839 156.757 42.1531C157.631 41.7222 158.619 41.5759 159.581 41.7346C160.543 41.8932 161.431 42.3489 162.12 43.0376C162.81 43.7264 163.266 44.6136 163.425 45.5747C163.583 46.5358 163.437 47.5224 163.006 48.396C162.574 49.2696 161.88 49.9863 161.02 50.4454C160.16 50.9046 159.178 51.083 158.211 50.9558C157.193 50.8212 156.248 50.3551 155.522 49.6297C154.796 48.9042 154.329 47.9598 154.194 46.9427V46.9427ZM166.011 64.4331C167.346 64.9508 168.768 65.2081 170.2 65.1911C170.79 65.1894 171.379 65.153 171.964 65.0818C172.015 65.0757 172.065 65.0594 172.11 65.0341C172.155 65.0088 172.195 64.9748 172.227 64.9341C172.259 64.8935 172.282 64.847 172.296 64.7972C172.31 64.7475 172.314 64.6954 172.308 64.6441C172.302 64.5928 172.286 64.5432 172.26 64.4982C172.235 64.4531 172.201 64.4135 172.16 64.3816C172.12 64.3496 172.073 64.326 172.023 64.312C171.974 64.2981 171.921 64.2941 171.87 64.3003C167.669 64.8083 165.244 63.2609 164.552 62.7373C164.184 62.4325 163.789 62.1159 163.378 61.7916C161.986 60.6857 160.406 59.447 159.256 58.0247C158.669 57.3096 158.114 55.3128 157.891 52.261C157.867 51.9406 157.848 51.8194 157.832 51.6788C158.158 51.7398 158.489 51.7711 158.821 51.7726C160.241 51.7346 161.589 51.1446 162.58 50.1283C163.57 49.112 164.124 47.7496 164.124 46.3312C164.124 44.9128 163.57 43.5505 162.58 42.5342C161.589 41.5179 160.241 40.9279 158.821 40.8899C158.708 40.8899 158.599 40.8899 158.489 40.9094C158.626 40.3417 158.803 39.7842 159.017 39.2409C160.447 39.9495 162.02 40.3224 163.617 40.3311C165.365 40.3307 167.08 39.8494 168.573 38.94C169.742 38.2988 170.76 37.414 171.557 36.3454C172.277 35.4115 172.476 35.1536 177.033 35.6499C178.801 36.5402 180.48 37.5961 182.048 38.8033C182.167 39.217 182.264 39.6371 182.337 40.0615C182.505 41.0423 182.83 43.3439 182.834 43.3673C182.843 43.4296 182.867 43.4887 182.904 43.5397C182.94 43.5907 182.989 43.6321 183.045 43.6604L184.911 44.5786C186.038 45.0818 186.966 45.9446 187.549 47.0316C188.133 48.1186 188.338 49.3683 188.134 50.5846C187.918 51.5697 187.391 52.4595 186.632 53.1235C185.872 53.7875 184.919 54.1905 183.913 54.2734C183.497 54.2952 183.08 54.2504 182.677 54.1406C182.626 54.1255 182.572 54.1211 182.518 54.1279C182.465 54.1346 182.414 54.1523 182.367 54.1798C182.321 54.2073 182.281 54.244 182.25 54.2876C182.218 54.3312 182.196 54.3808 182.185 54.4333C182.174 54.4858 182.173 54.54 182.184 54.5927C182.195 54.6453 182.216 54.6953 182.247 54.7393C182.278 54.7833 182.317 54.8205 182.363 54.8486C182.409 54.8767 182.46 54.8951 182.513 54.9025C182.882 54.98 183.258 55.0193 183.636 55.0198H183.698C183.573 57.6808 183.182 61.2055 181.082 62.5106C179.184 63.6829 178.539 65.8672 179.208 68.8135C179.503 70.0432 179.939 71.235 180.507 72.3655H163.382C164.243 71.0721 166.883 66.9183 166.011 64.4331V64.4331ZM110.597 145.379C108.524 145.437 107.112 145.039 106.526 144.206C106.355 143.928 106.247 143.617 106.209 143.293C106.17 142.969 106.202 142.641 106.303 142.331L110.996 141.831C110.727 142.994 110.593 144.185 110.597 145.379V145.379ZM106.623 141.506L124.933 97.3506C124.933 97.3037 126.353 92.9194 131.136 88.5156C139.143 81.142 150.302 79.3835 158.27 79.2038C160.852 79.0553 161.227 74.5381 161.282 73.1509H182.2C182.713 74.5342 185.161 80.7278 188.028 81.1967L188.631 81.2865C205.411 83.76 216.245 90.8757 219.957 101.86C225.433 118.115 233.44 144.222 234.782 148.626L231.109 147.825C230.831 144.699 229.356 141.604 226.701 138.619C216.05 126.646 203.232 108.393 200.514 102.825C198.053 97.7843 194.646 96.9637 193.899 96.8621C192.367 95.4523 190.741 94.1468 189.033 92.9545C187.739 92.1144 185.513 91.9777 183.866 92.0128V91.712L184.015 82.6034C184.015 81.1849 183.655 80.1259 182.951 79.4538C182.617 79.1603 182.225 78.9392 181.801 78.8047C181.377 78.6702 180.929 78.6251 180.487 78.6723L166.903 78.4847C163.773 78.2425 162.416 78.3988 161.665 79.0904C161.247 79.5229 161.016 80.1029 161.024 80.7043C160.398 81.0677 160.218 81.6812 160.218 82.6151L160.402 94.7677C159.506 94.7677 158.446 94.7677 157.273 94.7677C158.024 93.8104 159.181 92.0324 158.669 90.7351C158.587 90.4866 158.453 90.2588 158.274 90.0673C158.096 89.8757 157.878 89.7249 157.636 89.6253C156.737 89.2814 155.638 89.723 154.582 90.2466C154.284 90.4008 153.954 90.4812 153.619 90.4812C153.284 90.4812 152.954 90.4008 152.657 90.2466C152.607 90.2172 152.552 90.1992 152.494 90.1938C152.437 90.1884 152.379 90.1957 152.325 90.2153C149.9 91.0867 147.24 94.1229 146.673 94.8263C145.789 94.8458 142.092 95.053 140.837 97.0224C139.581 98.9918 116.625 131.753 115.823 132.894C113.659 135.202 112.067 137.984 111.172 141.018L106.623 141.506ZM179.31 80.5871L165.698 80.3956C163.906 80.2549 162.686 80.251 161.857 80.4152C161.886 80.1307 162.012 79.8646 162.213 79.6609C162.604 79.321 163.327 79.1569 164.642 79.1569C165.256 79.1569 165.995 79.192 166.879 79.2624L180.514 79.45C180.856 79.4098 181.202 79.4404 181.531 79.5399C181.86 79.6394 182.165 79.8057 182.427 80.0283C182.971 80.548 183.248 81.4194 183.248 82.6073L183.162 92.0481C182.834 92.0481 182.544 92.0871 182.321 92.1066L182.451 84.1391C182.451 82.748 182.087 80.4542 179.31 80.5871V80.5871ZM182.263 95.8267L182.31 92.8764C183.393 92.767 187.003 92.5717 188.607 93.6072C190.023 94.5814 191.377 95.6437 192.659 96.7879L182.466 96.4363H182.263V95.8267ZM156.279 94.7364C152.989 94.7364 149.379 94.7833 147.76 94.7989C148.703 93.7478 150.686 91.708 152.477 90.9929C152.872 91.1654 153.301 91.2478 153.732 91.2343C154.163 91.2208 154.585 91.1116 154.969 90.9148C155.821 90.4889 156.776 90.0864 157.394 90.3247C157.533 90.3864 157.658 90.4773 157.759 90.5912C157.86 90.7051 157.936 90.8395 157.981 90.9851C158.376 92.0636 156.983 93.9627 156.279 94.7521V94.7364ZM155.849 105.58L160.582 105.314L167.305 104.924C167.626 105.06 168.913 105.686 168.87 106.701C168.815 107.792 167.493 108.366 167.278 108.452L160.652 109.542L154.613 110.531C154.509 110.538 154.412 110.586 154.344 110.665C154.276 110.743 154.242 110.845 154.249 110.949C154.256 111.053 154.304 111.149 154.383 111.217C154.461 111.285 154.564 111.32 154.668 111.312L158.423 111.402H158.466C159.107 111.351 159.885 111.316 160.679 111.308H161.423H161.958H162.154H162.369L162.635 111.328H162.858L163.128 111.351L163.277 111.371C163.371 111.371 163.457 111.391 163.543 111.406H163.644L163.969 111.465L164.059 111.484L164.29 111.539L164.368 111.563L164.622 111.645L164.665 111.664L164.833 111.746L164.884 111.777C164.939 111.809 164.991 111.847 165.037 111.891C165.08 111.928 165.108 111.979 165.115 112.035C165.089 112.069 165.06 112.1 165.029 112.129L164.994 112.156C164.96 112.184 164.925 112.21 164.888 112.235L164.845 112.266L164.661 112.375L164.595 112.41L164.427 112.492L164.321 112.543L164.145 112.625L164.024 112.676L163.738 112.797L163.546 112.871L163.386 112.934L163.159 113.02L163.042 113.063L162.479 113.262L162.408 113.286L162.064 113.403L161.978 113.43C161.587 113.559 161.176 113.692 160.73 113.821C156.357 115.177 149.364 116.947 142.652 118.409C142.584 118.424 142.521 118.457 142.47 118.504C142.419 118.551 142.382 118.612 142.362 118.678L137.762 133.918C135.509 134.254 126.607 135.219 113.903 153.385C112.338 150.775 111.466 147.97 111.368 145.684C111.368 145.664 111.368 145.648 111.368 145.629C111.368 145.609 111.368 145.598 111.368 145.582C111.122 138.599 116.159 133.597 116.453 133.316L116.5 133.261C117.47 131.878 140.262 99.3591 141.552 97.3349C142.726 95.514 146.802 95.4945 146.915 95.4945L156.04 95.4281C157.672 95.4281 159.236 95.4281 160.453 95.4281H161.493H161.818H161.908H162.123H162.221H162.389H162.463H162.647C163.013 95.4401 163.371 95.5401 163.69 95.7197C164.01 95.8993 164.281 96.1531 164.481 96.4596C164.625 96.7283 164.7 97.0283 164.7 97.333C164.7 97.6377 164.625 97.9377 164.481 98.2064C164.467 98.2372 164.447 98.265 164.423 98.2885L164.395 98.3157L164.333 98.3705L164.282 98.4018L164.204 98.4525L164.137 98.4838L164.043 98.5307L163.961 98.5698L163.856 98.6127L163.758 98.6518L163.633 98.6909L163.519 98.73L163.386 98.773L163.257 98.812L163.132 98.8433L162.788 98.9332L162.674 98.9605L162.463 99.0074L162.338 99.0387L162.115 99.0817L161.982 99.109L161.739 99.1598L161.606 99.1833L161.344 99.2301L161.219 99.2536L160.93 99.3044H160.82L160.499 99.3591L159.596 99.4919L151.488 100.238C151.436 100.242 151.386 100.256 151.34 100.278C151.294 100.301 151.253 100.333 151.219 100.372C151.185 100.411 151.159 100.456 151.143 100.505C151.127 100.554 151.12 100.605 151.124 100.656C151.127 100.708 151.141 100.758 151.164 100.804C151.187 100.85 151.219 100.891 151.258 100.925C151.297 100.958 151.342 100.984 151.391 101.001C151.439 101.017 151.491 101.023 151.542 101.02C153.169 100.934 156.807 100.707 159.925 100.238L163.906 99.8709C166.394 99.7107 168.721 99.9687 168.893 100.43C169.226 101.336 168.534 102.618 167.329 103.286L167.204 103.341H167.157L167.032 103.384H166.969L166.773 103.435H166.75L166.492 103.493H166.41L166.187 103.536H166.089L165.799 103.587H165.753L165.361 103.646H165.271L164.947 103.693H164.837L164.477 103.74H164.399L163.934 103.798H163.867L163.453 103.845H163.324L162.932 103.888H162.835L162.311 103.943H162.287L161.818 103.99H161.673L161.282 104.025H161.133L160.605 104.072C158.951 104.22 157.249 104.345 155.825 104.431C155.722 104.437 155.625 104.484 155.556 104.562C155.487 104.64 155.451 104.742 155.458 104.845C155.464 104.949 155.511 105.046 155.589 105.115C155.667 105.184 155.769 105.219 155.872 105.213L155.849 105.58ZM160.66 110.535C160.112 110.535 159.612 110.558 159.217 110.578L160.656 110.343L160.66 110.535ZM167.63 86.2296H163.797C163.615 86.2411 163.432 86.2154 163.26 86.154C163.088 86.0927 162.93 85.997 162.796 85.8728C162.662 85.7486 162.555 85.5984 162.481 85.4315C162.407 85.2645 162.368 85.0843 162.366 84.9018C162.365 84.7193 162.4 84.5383 162.47 84.3699C162.541 84.2015 162.645 84.0492 162.776 83.9223C162.907 83.7953 163.063 83.6964 163.234 83.6316C163.405 83.5667 163.587 83.5373 163.769 83.5451H167.599C167.781 83.5334 167.964 83.5588 168.136 83.6199C168.308 83.6811 168.466 83.7766 168.6 83.9006C168.734 84.0246 168.841 84.1746 168.915 84.3414C168.989 84.5083 169.028 84.6884 169.031 84.8709C169.033 85.0534 168.998 85.2344 168.927 85.4029C168.857 85.5714 168.754 85.7237 168.623 85.8509C168.492 85.978 168.336 86.0771 168.165 86.1422C167.995 86.2073 167.813 86.2371 167.63 86.2296V86.2296ZM202.52 134.191C201.973 132.331 198.777 121.66 197.22 120.312C195.663 118.963 192.061 115.845 178.218 114.841C176.036 114.563 175.48 113.97 175.508 113.692C175.535 113.415 176.02 113.067 176.603 113.067C176.955 113.067 177.737 113.067 178.731 113.094C181.852 113.362 184.988 113.422 188.118 113.274C188.222 113.274 188.321 113.233 188.395 113.16C188.468 113.086 188.509 112.987 188.509 112.883C188.509 112.78 188.468 112.68 188.395 112.607C188.321 112.534 188.222 112.492 188.118 112.492C188.044 112.492 182.486 112.375 179.059 112.317C175.598 112 172.429 111.32 171.627 109.972C171.135 109.136 170.99 108.499 171.213 108.175C171.436 107.85 171.94 107.784 172.414 107.784C176.45 108.397 183.796 108.382 185.599 108.37C185.703 108.37 185.802 108.329 185.876 108.256C185.949 108.182 185.99 108.083 185.99 107.979C185.99 107.876 185.949 107.776 185.876 107.703C185.802 107.63 185.703 107.588 185.599 107.588L173.306 107.069C172.993 107.015 172.676 106.991 172.359 106.998C171.346 106.846 170.638 106.662 170.403 106.44C170.158 106.227 169.987 105.94 169.917 105.623C169.846 105.306 169.88 104.974 170.012 104.677C170.442 103.732 171.725 103.278 173.439 103.466C177.018 103.857 183.397 103.536 184.516 103.466H184.664C184.716 103.463 184.766 103.45 184.812 103.427C184.859 103.405 184.9 103.374 184.934 103.335C184.968 103.297 184.995 103.252 185.011 103.203C185.028 103.155 185.035 103.103 185.032 103.052C185.029 103 185.016 102.95 184.993 102.904C184.971 102.858 184.94 102.816 184.901 102.782C184.863 102.748 184.818 102.722 184.769 102.705C184.72 102.688 184.669 102.681 184.617 102.684L184.226 102.704C181.531 102.833 175.484 102.876 174.299 101.762C174.26 101.733 174.227 101.695 174.204 101.652C174.182 101.609 174.168 101.561 174.166 101.512C174.161 101.035 174.255 100.562 174.44 100.123C174.626 99.6829 174.9 99.2861 175.246 98.9566C176.47 97.7844 178.723 97.1709 181.786 97.1943H181.844L193.688 97.5851C193.891 97.6085 197.353 98.1165 199.798 103.126C202.536 108.733 215.412 127.08 226.106 139.095C229.235 142.636 230.671 146.305 230.311 149.994C229.802 155.269 225.785 159.114 224.545 160.185C217.673 146.641 210.288 137.919 202.52 134.207V134.191Z" fill="black"/>
</g>
</g>
<defs>
<clipPath id="clip0_1201_1610">
<path d="M0 0H280V152H0V0Z" fill="white"/>
</clipPath>
<clipPath id="clip1_1201_1610">
<rect width="200" height="200" fill="white" transform="translate(69 14)"/>
</clipPath>
</defs>
</svg>
